<svg width="28" height="7" viewBox="0 0 28 7" fill="none" xmlns="http://www.w3.org/2000/svg">
<path d="M0 3.5C0 1.567 1.567 0 3.5 0H24.5C26.433 0 28 1.567 28 3.5C28 5.433 26.433 7 24.5 7H3.5C1.567 7 0 5.433 0 3.5Z" fill="white"/>
<path d="M6 1.5C6 1.22386 6.22386 1 6.5 1C6.77615 1 7 1.22386 7 1.5V5.5C7 5.77614 6.77615 6 6.5 6C6.22386 6 6 5.77614 6 5.5V1.5Z" fill="#E4563A"/>
<path d="M11.5 1C11.7761 1 12 1.22386 12 1.5C12 1.77614 11.7761 2 11.5 2C11.2238 2 11 2.22386 11 2.5V5.5C11 5.77614 10.7761 6 10.5 6C10.2238 6 9.99999 5.77614 9.99999 5.5C9.99999 5.22386 9.77613 5 9.49999 5H8.49999C8.22384 5 7.99999 4.77614 7.99999 4.5C7.99999 4.22386 8.22384 4 8.49999 4C8.77613 4 8.99999 3.77614 8.99999 3.5C8.99999 3.22386 8.77613 3 8.49999 3C8.22384 3 7.99999 2.77614 7.99999 2.5C7.99999 2.22386 8.22384 2 8.49999 2H9.49999C9.77613 2 9.99999 1.77614 9.99999 1.5C9.99999 1.22386 10.2238 1 10.5 1H11.5Z" fill="#E23139"/>
<path d="M19 5.5C19 5.77614 18.7761 6 18.5 6C18.2238 6 18 5.77614 18 5.5V4C18 3.44772 17.5523 3 17 3H16.5C16.2238 3 16 2.77614 16 2.5C16 2.22386 16.2238 2 16.5 2H17.5C17.7761 2 18 1.77614 18 1.5C18 1.22386 18.2238 1 18.5 1C18.7761 1 19 1.22386 19 1.5V5.5Z" fill="#220596"/>
<path d="M23 5.5C23 5.77614 22.7761 6 22.5 6C22.2239 6 22 5.77614 22 5.5C22 5.22386 21.7761 5 21.5 5H20.5C20.2239 5 20 4.77614 20 4.5C20 4.22386 20.2239 4 20.5 4C20.7761 4 21 3.77614 21 3.5C21 3.22386 20.7761 3 20.5 3C20.2239 3 20 2.77614 20 2.5C20 2.22386 20.2239 2 20.5 2H21.5C21.7761 2 22 1.77614 22 1.5C22 1.22386 22.2239 1 22.5 1C22.7761 1 23 1.22386 23 1.5V5.5Z" fill="#70008A"/>
<path d="M24 2C24 1.44772 24.4477 1 25 1C25.5523 1 26 1.44772 26 2V4C26 4.55228 25.5523 5 25 5C24.4477 5 24 4.55228 24 4V2Z" fill="#D20093"/>
<path d="M3.99999 1C4.55228 1 4.99999 1.44772 4.99999 2V4.5C4.99999 4.77614 4.77613 5 4.49999 5C4.22385 5 3.99999 4.77614 3.99999 4.5V3.5C3.99999 3.22386 3.77613 3 3.49999 3C3.22385 3 2.99999 3.22386 2.99999 3.5V4.5C2.99999 4.77614 2.77613 5 2.49999 5C2.22385 5 1.99999 4.77614 1.99999 4.5V2C1.99999 1.44772 2.44771 1 2.99999 1H3.99999Z" fill="#E9713C"/>
<path d="M2.99999 5.5C2.99999 5.22386 3.22385 5 3.49999 5C3.77613 5 3.99999 5.22386 3.99999 5.5C3.99999 5.77614 3.77613 6 3.49999 6C3.22385 6 2.99999 5.77614 2.99999 5.5Z" fill="#E9713C"/>
<path d="M13 5.5C13 5.77614 12.7762 6 12.5 6C12.2239 6 12 5.77614 12 5.5V4.5C12 4.22386 12.2239 4 12.5 4C12.7762 4 13 4.22386 13 4.5V5.5Z" fill="#0E3DB9"/>
<path d="M15 3C15 3.55228 15.4477 4 16 4H16.5C16.7762 4 17 4.22386 17 4.5C17 4.77614 16.7762 5 16.5 5H15.5C15.2239 5 15 5.22386 15 5.5C15 5.77614 14.7762 6 14.5 6C14.2239 6 14 5.77614 14 5.5V2.5C14 2.22386 13.7762 2 13.5 2C13.2239 2 13 1.77614 13 1.5C13 1.22386 13.2239 1 13.5 1H14C14.5523 1 15 1.44772 15 2V3Z" fill="#0E3DB9"/>
<path d="M12 2.5C12 2.22386 12.2239 2 12.5 2C12.7762 2 13 2.22386 13 2.5C13 2.77614 12.7762 3 12.5 3C12.2239 3 12 2.77614 12 2.5Z" fill="#0E3DB9"/>
</svg>
