<svg viewBox="0 0 28 7" fill="none" xmlns="http://www.w3.org/2000/svg">
<path d="M6 1.5C6 1.22386 6.22386 1 6.5 1C6.77614 1 7 1.22386 7 1.5V5.5C7 5.77614 6.77614 6 6.5 6C6.22386 6 6 5.77614 6 5.5V1.5Z" fill="#E4563A"/>
<path d="M11.5 1C11.7761 1 12 1.22386 12 1.5C12 1.77614 11.7761 2 11.5 2C11.2239 2 11 2.22386 11 2.5V5.5C11 5.77614 10.7761 6 10.5 6C10.2239 6 10 5.77614 10 5.5C10 5.22386 9.77614 5 9.5 5H8.5C8.22386 5 8 4.77614 8 4.5C8 4.22386 8.22386 4 8.5 4C8.77614 4 9 3.77614 9 3.5C9 3.22386 8.77614 3 8.5 3C8.22386 3 8 2.77614 8 2.5C8 2.22386 8.22386 2 8.5 2H9.5C9.77614 2 10 1.77614 10 1.5C10 1.22386 10.2239 1 10.5 1H11.5Z" fill="#E23139"/>
<path d="M19 5.5C19 5.77614 18.7761 6 18.5 6C18.2239 6 18 5.77614 18 5.5V4C18 3.44772 17.5523 3 17 3H16.5C16.2239 3 16 2.77614 16 2.5C16 2.22386 16.2239 2 16.5 2H17.5C17.7761 2 18 1.77614 18 1.5C18 1.22386 18.2239 1 18.5 1C18.7761 1 19 1.22386 19 1.5V5.5Z" fill="#220596"/>
<path d="M23 5.5C23 5.77614 22.7761 6 22.5 6C22.2239 6 22 5.77614 22 5.5C22 5.22386 21.7761 5 21.5 5H20.5C20.2239 5 20 4.77614 20 4.5C20 4.22386 20.2239 4 20.5 4C20.7761 4 21 3.77614 21 3.5C21 3.22386 20.7761 3 20.5 3C20.2239 3 20 2.77614 20 2.5C20 2.22386 20.2239 2 20.5 2H21.5C21.7761 2 22 1.77614 22 1.5C22 1.22386 22.2239 1 22.5 1C22.7761 1 23 1.22386 23 1.5V5.5Z" fill="#70008A"/>
<path d="M24 2C24 1.44772 24.4477 1 25 1C25.5523 1 26 1.44772 26 2V4C26 4.55228 25.5523 5 25 5C24.4477 5 24 4.55228 24 4V2Z" fill="#A60074"/>
<path d="M4 1C4.55228 1 5 1.44772 5 2V4.5C5 4.77614 4.77614 5 4.5 5C4.22386 5 4 4.77614 4 4.5V3.5C4 3.22386 3.77614 3 3.5 3C3.22386 3 3 3.22386 3 3.5V4.5C3 4.77614 2.77614 5 2.5 5C2.22386 5 2 4.77614 2 4.5V2C2 1.44772 2.44772 1 3 1H4Z" fill="#E9713C"/>
<path d="M3 5.5C3 5.22386 3.22386 5 3.5 5C3.77614 5 4 5.22386 4 5.5C4 5.77614 3.77614 6 3.5 6C3.22386 6 3 5.77614 3 5.5Z" fill="#E9713C"/>
<path d="M13 5.5C13 5.77614 12.7761 6 12.5 6C12.2239 6 12 5.77614 12 5.5V4.5C12 4.22386 12.2239 4 12.5 4C12.7761 4 13 4.22386 13 4.5V5.5Z" fill="#0E3DB9"/>
<path d="M15 3C15 3.55228 15.4477 4 16 4H16.5C16.7761 4 17 4.22386 17 4.5C17 4.77614 16.7761 5 16.5 5H15.5C15.2239 5 15 5.22386 15 5.5C15 5.77614 14.7761 6 14.5 6C14.2239 6 14 5.77614 14 5.5V2.5C14 2.22386 13.7761 2 13.5 2C13.2239 2 13 1.77614 13 1.5C13 1.22386 13.2239 1 13.5 1H14C14.5523 1 15 1.44772 15 2V3Z" fill="#0E3DB9"/>
<path d="M12 2.5C12 2.22386 12.2239 2 12.5 2C12.7761 2 13 2.22386 13 2.5C13 2.77614 12.7761 3 12.5 3C12.2239 3 12 2.77614 12 2.5Z" fill="#0E3DB9"/>
</svg>
